<svg xmlns="http://www.w3.org/2000/svg" width="20" height="20" viewBox="0 0 20 20">
  <g id="Group_5012" data-name="Group 5012" transform="translate(-599 -248)">
    <path id="Path_2" data-name="Path 2" d="M18.271,3.559a.524.524,0,0,0-.323-.484L10.549.04a.523.523,0,0,0-.4,0L2.75,3.079a.525.525,0,0,0-.325.484v9.615a.525.525,0,0,0,.325.485l7.4,3.038a.514.514,0,0,0,.4,0l7.4-3.038a.525.525,0,0,0,.325-.485Zm-7.92,2.517L7.628,4.956l5.891-2.569,2.908,1.194ZM3.478,4.385l2.351.965V8.076a.524.524,0,1,0,1.048,0v-2.3l2.95,1.217v8.438L3.478,12.823Zm6.873-3.3,1.816.745L6.276,4.4l-2-.821Zm.524,5.906,6.349-2.608v8.438l-6.349,2.608Z" transform="translate(598.575 250)" fill="#fff"/>
    <rect id="Rectangle_6" data-name="Rectangle 6" width="20" height="20" transform="translate(599 248)" fill="none"/>
  </g>
</svg>
